<svg viewBox="0 0 96.52 96.52" xmlns="http://www.w3.org/2000/svg"><g data-name="Layer 2">
<path d="M94.16 51.28 48.61 5.8a19.73 19.73 0 0 0-6.5-4.11A19.68 19.68 0 0 0 34.66 0H8.15a7.84 7.84 0 0 0-5.73 2.42A7.84 7.84 0 0 0 0 8.15v26.5a19.67 19.67 0 0 0 1.69 7.45 19 19 0 0 0 4.11 6.44l45.55 45.62a7.8 7.8 0 0 0 5.73 2.36 8.16 8.16 0 0 0 5.8-2.36l31.28-31.34a7.8 7.8 0 0 0 2.36-5.73 8.16 8.16 0 0 0-2.36-5.81ZM20.39 28.54a8.16 8.16 0 0 1-8.15-8.15 8.16 8.16 0 0 1 8.15-8.15 8.16 8.16 0 0 1 8.15 8.15 8.16 8.16 0 0 1-8.15 8.15Zm30.29 34.41a4.63 4.63 0 0 1-6.54 0l-16.2-16.2a4.63 4.63 0 1 1 6.54-6.54l16.2 16.2a4.62 4.62 0 0 1 0 6.54Zm24-2.27a4.62 4.62 0 0 1-6.54 0l-27-27a4.63 4.63 0 0 1 6.54-6.54l27 27a4.62 4.62 0 0 1-.03 6.53Z" 
data-name="Layer 1" fill="#1aa090" class="fill-000000"></path></g>
</svg>